<svg xmlns="http://www.w3.org/2000/svg" width="288" height="50" fill="none" viewBox="0 0 288 50"><path fill="#000" fill-opacity=".15" d="M8 16.5H24V33H8V16.5Z"/><path fill="#000" fill-opacity=".15" d="M48 16.5H64V33H48V16.5Z"/><path fill="#000" fill-opacity=".15" d="M120 16.5H136V33H120V16.5Z"/><path fill="#000" fill-opacity=".15" d="M160 16.5H176V33H160V16.5Z"/><path fill="#000" fill-opacity=".15" d="M192 16.5H208V33H192V16.5Z"/><path fill="#000" fill-opacity=".15" d="M232 16.5H248V33H232V16.5Z"/><path fill="#000" fill-opacity=".95" d="M264 0H288V8.5H272V16.5H288V25H272V33H288V41.5H264V0Z"/><path fill="#000" fill-opacity=".95" d="M248 0H224V41.5H248V33H232V8.5H248V0Z"/><path fill="#000" fill-opacity=".95" d="M256 8.5H248V33H256V8.5Z"/><path fill="#000" fill-opacity=".95" fill-rule="evenodd" d="M184 0H216V41.5H184V0ZM208 8.5H192V33H208V8.5Z" clip-rule="evenodd"/><path fill="#000" fill-opacity=".55" d="M144 8.5H136V41.5H144V8.5Z"/><path fill="#000" fill-opacity=".55" d="M136 0H112V41.5H120V8.5H136V0Z"/><path fill="#000" fill-opacity=".55" d="M80 0H104V8.5H88V16.5H104V25H88V33H104V41.5H80V0Z"/><path fill="#000" fill-opacity=".55" fill-rule="evenodd" d="M40 0H72V41.5H48V49.5H40V0ZM64 8.5H48V33H64V8.5Z" clip-rule="evenodd"/><path fill="#000" fill-opacity=".55" fill-rule="evenodd" d="M0 0H32V41.5955H0V0ZM24 8.5H8V33H24V8.5Z" clip-rule="evenodd"/><path fill="#000" fill-opacity=".95" d="M152 0H176V8.5H160V33H176V41.5H152V0Z"/></svg>